<?xml version="1.0" encoding="UTF-8"?>
<!DOCTYPE svg PUBLIC "-//W3C//DTD SVG 1.1//EN" "http://www.w3.org/Graphics/SVG/1.1/DTD/svg11.dtd">
<!-- Creator: CorelDRAW 2020 (64-Bit) -->
<svg xmlns="http://www.w3.org/2000/svg" xml:space="preserve" width="75px" height="106px" version="1.1" style="shape-rendering:geometricPrecision; text-rendering:geometricPrecision; image-rendering:optimizeQuality; fill-rule:evenodd; clip-rule:evenodd"
viewBox="0 0 75 106.07"
 xmlns:xlink="http://www.w3.org/1999/xlink"
 xmlns:xodm="http://www.corel.com/coreldraw/odm/2003">
 <defs>
  <style type="text/css">
   <![CDATA[
    .fil0 {fill:#E6E6E6}
   ]]>
  </style>
 </defs>
 <g id="Layer_x0020_1">
  <metadata id="CorelCorpID_0Corel-Layer"/>
  <g id="_2244747369808">
   <path class="fil0" d="M18.81 16.4c-0.19,0.38 -1.27,1.55 -1.64,2.02 -0.56,0.73 -1.02,1.41 -1.53,2.22 -3.94,6.3 -5.86,16.78 -1.59,23.55 2.11,3.34 4.25,5.3 7.45,7.43 1.15,0.77 3.41,1.96 5.02,2.46 7.14,2.2 21.44,5.67 27.31,9.95 2.24,1.63 4.61,4.01 3.52,7.23 -0.48,1.44 -1.37,2.33 -2.27,3.34 -0.04,0.05 -0.16,0.2 -0.18,0.22l-2.07 1.76c-0.02,0.01 -0.04,0.03 -0.06,0.04l-0.73 0.67c1.1,-0.03 4.88,-2.64 5.98,-3.5 0.28,-0.22 0.45,-0.43 0.79,-0.55l2.3 -2c0.37,-0.36 0.66,-0.67 1.03,-1.04 1.24,-1.22 2.8,-3.26 3.82,-4.67 0.35,-0.49 0.55,-0.81 0.87,-1.31 0.57,-0.89 1.02,-1.74 1.51,-2.73 1.05,-2.1 2.33,-6.05 2.33,-8.35 -0.01,-0.76 0.15,-1.29 0.03,-2.02 -0.21,-1.35 0.01,-1.65 -0.47,-3.77 -1.24,-5.47 -4.15,-9.51 -8.49,-12.75 -1.16,-0.87 -2.05,-1.36 -3.28,-2.05 -3.24,-1.79 -9.57,-3.82 -13.42,-4.65 -0.61,-0.14 -1.22,-0.28 -1.75,-0.43 -1.96,-0.57 -4.58,-1.04 -6.73,-1.76 -1.83,-0.62 -4.37,-1.51 -5.78,-2.82 -0.82,-0.77 -1.28,-1.36 -1.73,-2.51 -1.1,-2.8 0.53,-6.91 3.02,-8.99 1.96,-1.65 3,-2.16 5.31,-3.19 1.38,-0.61 4.42,-1.43 5.94,-1.57 0.55,-0.04 0.63,0.12 0.87,-0.21l-4.21 0.14 -3.88 0.56c-1.11,0.25 -2.45,0.54 -3.54,0.91l-3.27 1.17c-2.82,1.14 -6.8,3.53 -8.83,5.49l-1.27 1.2c-0.01,0.02 -0.03,0.04 -0.04,0.06l-0.34 0.45z"/>
   <path class="fil0" d="M32.3 66.87c0.07,-0.28 0.12,-0.19 0.52,-0.2 0.48,-0.01 1.8,-0.05 2.1,0.1 0.13,0.59 -0.2,0.54 -0.31,1.18 -0.11,0.62 -0.04,9.75 -0.02,10.2l3.86 -0.02c0.55,-0.07 1.64,-0.65 0.61,1.09 -0.4,0.68 -0.24,0.73 -0.7,0.94 -0.32,0.04 -0.61,-0.16 -1.28,-0.16l-4.94 0c0.72,-1.06 0.5,-1.36 0.5,-2.96l0 -8.79c0,-1.02 -0.44,-0.76 -0.34,-1.38zm-24.67 -35.46c-0.9,3.71 -1.58,4.83 -2.25,9.23 -2.35,15.45 5.04,30.28 18.7,37.54 2.47,1.31 5.31,2.48 8.33,3.12 1.67,0.36 3.39,0.53 5.26,0.49 0.91,-0.02 2.76,-0.29 3.67,-0.58 0.38,-0.12 0.58,-0.26 1.07,-0.26 0.46,-0.15 0.17,0.06 0.4,-0.25 -3.99,-0.93 -3.67,-4.51 -2.5,-5.66 1.67,-1.67 4.5,-0.7 4.16,1.39 -0.13,0.78 -0.52,1.01 -1.46,1.01 0.02,-0.33 0.5,-1.05 -0.13,-1.46 -0.99,-0.63 -2.15,0.66 -1.53,1.93 0.67,1.36 2.95,1.63 3.93,0.42 0.96,-1.18 0.73,-3.02 -0.52,-4.33 -0.41,-0.42 -0.16,-0.31 -0.77,-0.81 -0.01,-0.01 -0.03,-0.03 -0.05,-0.05l-2.14 -2.1c-0.24,-0.29 -0.64,-0.83 -0.73,-1.25 -0.12,-0.55 -0.05,-1.37 0.1,-1.79 0.31,-0.88 1.2,-1.72 2.33,-1.72 -0.47,-0.65 -6.9,-1.71 -7.55,-1.84 -7.28,-1.47 -14.4,-3.7 -20.32,-8.13l-1.89 -1.56c-1.07,-1.08 -1.87,-1.86 -2.81,-3.12 -1.27,-1.71 -2.58,-4.23 -3.13,-6.35 -1.07,-4.17 -1.18,-8.48 -0.17,-12.71 0.15,-0.64 0.28,-1.25 0.47,-1.89 0.15,-0.48 0.5,-1.39 0.53,-1.84 -0.11,0.13 -0.03,0.01 -0.15,0.24l-0.85 2.33z"/>
   <path class="fil0" d="M8.54 34.17c-0.31,6.47 0.76,11.35 3.88,15.68 5.67,7.88 16.78,11.29 26.29,13.19 5.6,1.12 11.59,1.66 10.68,8.87 0.72,-0.81 0.78,-5.63 -1.52,-7.83 -2.33,-2.24 -8.12,-2.77 -11.75,-3.56 -1.38,-0.29 -2.77,-0.62 -4.15,-0.99 -0.28,-0.07 -0.61,-0.18 -0.99,-0.29l-2.89 -0.96c-2.49,-0.81 -6.26,-2.74 -8.6,-4.15 -1.6,-0.96 -3.69,-2.65 -5.01,-3.98 -2.23,-2.26 -4.19,-5.88 -5.04,-8.98 -0.67,-2.49 -0.74,-4.45 -0.71,-7 0.01,-0.71 0.2,-1.68 0.2,-2.37 -0.09,0.14 0.01,-0.09 -0.09,0.21 -0.16,0.44 -0.31,1.78 -0.3,2.16z"/>
   <path class="fil0" d="M36.37 10.07c-0.51,0.69 -2.2,2.05 -1.71,4.02 0.19,0.76 0.79,1.29 1.34,1.59 0.8,0.43 1.69,0.32 2.66,0.32 1.06,-0.23 2.03,-2.02 2.57,-2.96 0.14,-0.24 0.29,-0.45 0.46,-0.73 0.81,-1.3 1.95,-2.63 3.23,-3.48 0.46,-0.31 0.95,-0.61 1.45,-0.83 0.47,-0.21 1.09,-0.54 1.67,-0.59l-3.27 -0.01 -3.17 0.48c-1.02,0.23 -1.87,0.5 -2.8,0.85 -0.7,0.27 -2.02,0.88 -2.43,1.34z"/>
   <path class="fil0" d="M58.81 73.24c-0.34,0.12 -0.51,0.33 -0.79,0.55 -1.1,0.86 -4.88,3.47 -5.98,3.5l0.73 -0.67c0.02,-0.01 0.04,-0.03 0.06,-0.04l2.07 -1.76c0.02,-0.02 0.14,-0.17 0.18,-0.22 0.9,-1.01 1.79,-1.9 2.27,-3.34 1.09,-3.22 -1.28,-5.6 -3.52,-7.23 -5.87,-4.28 -20.17,-7.75 -27.31,-9.95 -1.61,-0.5 -3.87,-1.69 -5.02,-2.46 -3.2,-2.13 -5.34,-4.09 -7.45,-7.43 -4.27,-6.77 -2.35,-17.25 1.59,-23.55 0.51,-0.81 0.97,-1.49 1.53,-2.22 0.37,-0.47 1.45,-1.64 1.64,-2.02 -0.85,0.56 -3.03,3.64 -3.46,4.35 -1.37,2.28 -1.63,3.06 -2.51,5.38 -0.96,2.52 -1.72,7.59 -1.37,10.24 0.2,1.46 -0.01,1.87 0.42,3.54 0.87,3.33 3.15,6.74 5.66,9.06 2.27,2.1 4.93,3.77 7.79,4.95 0.97,0.4 1.97,0.65 2.96,0.98 0.95,0.32 2.04,0.62 2.97,0.89 3.37,0.94 10.46,2.94 13.52,4.16 4.55,1.82 15.38,5.79 11.78,12.28 -0.5,0.91 -1.44,2.04 -2.26,2.68 -0.24,0.18 -0.31,0.3 -0.52,0.47 -0.38,0.31 -0.71,0.6 -1.1,0.87 -1.17,0.82 -2.36,1.63 -3.63,2.31 -0.29,0.15 -1.06,0.54 -1.21,0.75 2.62,-0.22 8.15,-3.78 10.39,-5.6 0.21,-0.17 0.4,-0.3 0.57,-0.47z"/>
   <path class="fil0" d="M50.9 18.67c0.39,-0.48 1.34,-0.25 1.43,0.48 0.07,0.59 -0.01,1.56 0,2.19 0.02,2.15 1.95,1.64 2.4,1.87 0.59,-0.26 0.63,-0.54 0.92,-1.09l-2.47 0.1c0,-0.72 0,-1.45 0,-2.17 0.01,-1.43 -0.81,-2.61 -1.78,-2.67 -0.82,-0.05 -1.25,0.48 -1.58,0.69 -0.19,-0.7 -0.88,-0.69 -1.78,-0.69 -0.02,0.02 -0.05,0.01 -0.06,0.04 -0.05,0.15 0.02,-0.06 -0.3,0.19 -0.93,0.71 -1.32,1.79 -1.32,3.03 0,1.67 -0.01,3.3 0.3,4.65l0.81 -1.17c0.17,-0.23 0.29,-0.31 0.27,-0.69 -0.05,-1.05 -1.16,-5.22 0.77,-4.85 1.61,0.31 0.19,3.78 0.7,5.64 0.12,0.46 -0.13,0.12 0.22,0.37 0.11,-0.43 0.53,-0.83 0.78,-1.2 0.43,-0.64 -0.25,-1.91 -0.04,-3.38 0.14,-0.95 0,-0.95 0.73,-1.34z"/>
   <path class="fil0" d="M42.61 69.04c0,1.72 3.94,2.86 4.84,6.72 1.02,-1.17 0.54,-6.62 -1.09,-7.71 0,1.57 -0.21,1.88 -1.48,1.88 -0.53,0 -0.84,-0.39 -0.89,-0.89 0.81,0.07 0.79,0.08 0.79,-0.69 0,-0.72 -2.17,-1.08 -2.17,0.69z"/>
   <path class="fil0" d="M42.41 80.95c-0.49,0 -0.69,0.14 -1.07,0.26 -0.91,0.29 -2.76,0.56 -3.67,0.58 -1.87,0.04 -3.59,-0.13 -5.26,-0.49 -3.02,-0.64 -5.86,-1.81 -8.33,-3.12 -13.66,-7.26 -21.05,-22.09 -18.7,-37.54 0.67,-4.4 1.35,-5.52 2.25,-9.23 -0.36,0.49 -1.19,3.52 -1.41,4.3 -0.44,1.57 -0.74,3.06 -1.01,4.72 -0.28,1.65 -0.44,3.52 -0.53,5.2 -0.15,2.79 0.44,7.55 1.23,10.33 1.23,4.33 3.06,8.21 5.69,11.7 1.38,1.83 1.75,2.15 3.06,3.65 1.65,1.9 3.71,3.38 5.7,4.87 1.31,0.98 2.3,1.44 3.6,2.23 1.98,1.19 6.16,2.68 8.42,3.13 3.35,0.67 7.38,0.63 10.03,-0.59z"/>
   <path class="fil0" d="M49.39 71.91c0.91,-7.21 -5.08,-7.75 -10.68,-8.87 -9.51,-1.9 -20.62,-5.31 -26.29,-13.19 -3.12,-4.33 -4.19,-9.21 -3.88,-15.68 -0.08,0.13 -0.04,0 -0.08,0.22 -0.02,0.12 -0.02,0.16 -0.03,0.27 -0.05,1.24 -0.19,3.01 -0.09,4.25 0.18,2.14 0.7,5.12 1.59,7 0.15,0.32 0.26,0.56 0.4,0.89 0.38,0.95 1.31,2.28 1.83,3.11l1.09 1.38c0.24,0.25 0.29,0.39 0.54,0.64 0.24,0.24 0.41,0.4 0.65,0.64 0.43,0.44 0.76,0.81 1.26,1.2l1.37 1.1c1.91,1.43 4,2.56 6.21,3.67 9.31,4.66 19.06,4.62 22.89,6.74 3.79,2.1 2.97,5.97 3.22,6.63z"/>
   <path class="fil0" d="M39.75 16.93c0.64,0.34 0.62,1 1.76,0.83 0.55,-0.07 1.62,-0.41 2.19,-0.38l-0.17 6.03c0,0.03 -0.09,1.88 -0.26,1.61 -0.01,-0.02 -0.04,0.05 -0.07,0.07 0.39,-0.06 0.93,-0.85 1.29,-1.09 -0.5,-1.03 -0.09,-3.87 -0.1,-5.04 -0.01,-0.72 0.1,-1.02 0.1,-1.68 0.48,0 1,-0.13 1.45,-0.22 0.41,-0.08 1.05,-0.07 1.61,-0.07 0.23,0.34 0.09,0.35 0.49,0.39l0.2 -0.11c-0.17,-2.07 -2.34,-1.29 -3.86,-0.98l-3.56 0.69c-0.66,0.05 -0.73,-0.33 -1.07,-0.05z"/>
   <path class="fil0" d="M32.3 66.87l2.51 0c-0.27,1.13 -0.5,-0.15 -0.5,2.47l0 9.08 3.9 -0.05c0.49,-0.08 0.77,-0.21 1.14,-0.24 -0.03,0.38 -0.33,0.71 -0.49,0.99 -0.17,0.3 -0.42,0.68 -0.5,1.04 0.46,-0.21 0.3,-0.26 0.7,-0.94 1.03,-1.74 -0.06,-1.16 -0.61,-1.09l-3.86 0.02c-0.02,-0.45 -0.09,-9.58 0.02,-10.2 0.11,-0.64 0.44,-0.59 0.31,-1.18 -0.3,-0.15 -1.62,-0.11 -2.1,-0.1 -0.4,0.01 -0.45,-0.08 -0.52,0.2z"/>
   <path class="fil0" d="M43.2 25.09c0.03,-0.02 0.06,-0.09 0.07,-0.07 0.17,0.27 0.26,-1.58 0.26,-1.61l0.17 -6.03c-0.57,-0.03 -1.64,0.31 -2.19,0.38 -1.14,0.17 -1.12,-0.49 -1.76,-0.83l-0.12 0.25c0.59,0.39 0.66,0.96 1.74,0.74 0.51,-0.1 1.81,-0.28 2.13,-0.44 0,0.46 -0.06,0.42 -0.09,0.8l-0.11 4.83c0.01,0.82 -0.1,1.2 -0.1,1.98z"/>
   <path class="fil0" d="M38.66 16c-0.97,0 -1.86,0.11 -2.66,-0.32 -0.55,-0.3 -1.15,-0.83 -1.34,-1.59 -0.49,-1.97 1.2,-3.33 1.71,-4.02 -1.07,0.32 -3.77,4.23 -0.48,5.84 0.6,0.29 1.35,0.34 2.08,0.29 0.24,-0.02 0.13,0 0.34,-0.05 0.03,-0.01 0.12,-0.04 0.15,-0.05 0.27,-0.11 0.08,-0.02 0.2,-0.1z"/>
   <path class="fil0" d="M50.9 18.67c0.46,0 0.77,-0.06 1.09,0.1 0.63,0.62 -0.83,3.47 1.12,4.42 0.34,0.16 1.28,0.22 1.62,0.02 -0.45,-0.23 -2.38,0.28 -2.4,-1.87 -0.01,-0.63 0.07,-1.6 0,-2.19 -0.09,-0.73 -1.04,-0.96 -1.43,-0.48z"/>
   <path class="fil0" d="M8.83 28.35l0.03 -0.03c0,0 -0.04,0.02 -0.03,0.03z"/>
   <polygon class="fil0" points="8.73,28.64 8.85,28.45 "/>
   <polygon class="fil0" points="8.63,28.84 8.73,28.64 "/>
  </g>
 </g>
</svg>
